<svg width="78" height="62" viewBox="0 0 78 62" fill="none" xmlns="http://www.w3.org/2000/svg">
<path d="M78 62H47.4277V60.5459H76.5V1.5459H24.3379L47.4277 41L47.0508 24.8975L59.4932 31.7822L71.3701 8.71973V42.1104H67.9766V22.7939L61.002 37.1377L50.2559 30.4434V53.585H47.9932L29.707 22.4111V33.5039H31L33.2627 37.1377H29.707V42.1104H26.3906V19.9062C25.4132 21.9164 23.9 23.5196 21.8516 24.7148C19.803 25.8965 17.1784 26.4873 13.9785 26.4873H4.98047V41.7275H0V0H78V62ZM5.47266 21.8379H14.3604C16.582 21.8379 18.3664 21.4492 19.7129 20.6719C21.0595 19.8944 22.0366 18.8435 22.6426 17.5205C23.2619 16.1839 23.5713 14.6765 23.5713 12.999C23.5713 11.3215 23.2619 9.82099 22.6426 8.49805C22.0366 7.17503 21.0524 6.13884 19.6924 5.38867C18.3325 4.62504 16.5286 4.24225 14.2803 4.24219H5.47266V21.8379Z" fill="#00D0FF"/>
<path d="M78 62H47.4277V60.5459H76.5V1.5459H24.3379L47.4277 41L47.0508 24.8975L59.4932 31.7822L71.3701 8.71973V42.1104H67.9766V22.7939L61.002 37.1377L50.2559 30.4434V53.585H47.9932L29.707 22.4111V33.5039H31L33.2627 37.1377H29.707V42.1104H26.3906V19.9062C25.4132 21.9164 23.9 23.5196 21.8516 24.7148C19.803 25.8965 17.1784 26.4873 13.9785 26.4873H4.98047V41.7275H0V0H78V62ZM5.47266 21.8379H14.3604C16.582 21.8379 18.3664 21.4492 19.7129 20.6719C21.0595 19.8944 22.0366 18.8435 22.6426 17.5205C23.2619 16.1839 23.5713 14.6765 23.5713 12.999C23.5713 11.3215 23.2619 9.82099 22.6426 8.49805C22.0366 7.17503 21.0524 6.13884 19.6924 5.38867C18.3325 4.62504 16.5286 4.24225 14.2803 4.24219H5.47266V21.8379Z" stroke="#00D0FF"/>
</svg>
