<svg width="55" height="55" viewBox="0 0 55 55" fill="none" xmlns="http://www.w3.org/2000/svg">
<g clip-path="url(#clip0_174_295)">
<path d="M55 0H0V55H55V0Z" fill="black"/>
<path d="M30.9164 32.6251L26.6455 42.021L28.2723 30.6333C28.3103 30.3678 28.3292 30.235 28.2545 30.1488C28.1797 30.0626 28.0456 30.0626 27.7774 30.0626H20.6545C20.2788 30.0626 20.091 30.0626 20.0184 29.9402C19.9457 29.8179 20.0356 29.653 20.2155 29.3232L30.0622 11.271L28.4354 22.6586C28.3975 22.9241 28.3785 23.0569 28.4533 23.1431C28.528 23.2293 28.6621 23.2293 28.9304 23.2293H34.4107C34.7604 23.2293 34.9353 23.2293 35.0091 23.3439C35.083 23.4586 35.0106 23.6178 34.8659 23.9362L32.4694 29.2085" stroke="white" stroke-linecap="round" stroke-linejoin="round"/>
</g>
<defs>
<clipPath id="clip0_174_295">
<rect width="55" height="55" fill="white"/>
</clipPath>
</defs>
</svg>
