<svg width="55" height="55" viewBox="0 0 55 55" fill="none" xmlns="http://www.w3.org/2000/svg">
<g clip-path="url(#clip0_174_323)">
<path d="M55 0H0V55H55V0Z" fill="black"/>
<path d="M27.5003 41.1668L14.5133 24.9331C14.1808 24.5175 14.0145 24.3097 13.9699 24.0592C13.9252 23.8087 14.0094 23.5563 14.1777 23.0513L16.3386 16.5686C16.7786 15.2485 16.9986 14.5885 17.5224 14.211C18.0462 13.8335 18.7419 13.8335 20.1333 13.8335H34.8672C36.2587 13.8335 36.9544 13.8335 37.4782 14.211C38.002 14.5885 38.222 15.2485 38.662 16.5686L40.8229 23.0513C40.9912 23.5563 41.0754 23.8087 41.0307 24.0592C40.986 24.3097 40.8198 24.5175 40.4872 24.9331L27.5003 41.1668ZM27.5003 41.1668L33.4794 22.3752M27.5003 41.1668L21.5211 22.3752M33.4794 22.3752L40.3128 24.0835M33.4794 22.3752L30.9169 15.5418M33.4794 22.3752H21.5211M21.5211 22.3752L24.0836 15.5418M21.5211 22.3752L14.6878 24.0835" stroke="white" stroke-linecap="round"/>
</g>
<defs>
<clipPath id="clip0_174_323">
<rect width="55" height="55" fill="white"/>
</clipPath>
</defs>
</svg>
