<svg width="55" height="55" viewBox="0 0 55 55" fill="none" xmlns="http://www.w3.org/2000/svg">
<g clip-path="url(#clip0_174_319)">
<path d="M55 0H0V55H55V0Z" fill="black"/>
<path d="M28.273 13.1852L39.5702 16.1978C40.0079 16.3145 40.3125 16.711 40.3125 17.164V30.268C40.3125 32.2741 39.3099 34.1475 37.6407 35.2603L28.0547 41.651C27.7188 41.8749 27.2812 41.8749 26.9453 41.651L17.3593 35.2603C15.6901 34.1475 14.6875 32.2741 14.6875 30.268V17.164C14.6875 16.711 14.9921 16.3145 15.4298 16.1978L26.727 13.1852C27.2335 13.0502 27.7665 13.0502 28.273 13.1852Z" stroke="white" stroke-linecap="round"/>
<path d="M23.229 26.646L26.4689 29.8859C26.5665 29.9835 26.7248 29.9835 26.8224 29.8859L32.6248 24.0835" stroke="white" stroke-linecap="round"/>
</g>
<defs>
<clipPath id="clip0_174_319">
<rect width="55" height="55" fill="white"/>
</clipPath>
</defs>
</svg>
