<svg width="142" height="62" viewBox="0 0 142 62" fill="none" xmlns="http://www.w3.org/2000/svg">
<path fill-rule="evenodd" clip-rule="evenodd" d="M97.3864 0V62H47.428V60.5459H96V1.54588H24.3381L47.051 44.0225V24.8976L59.4934 31.7826L71.3703 8.72016V42.11H67.9769V22.7938L61.0016 37.1375L50.2559 30.4438V53.585H47.9936L29.707 22.4113V33.5038H31L33.2623 37.1375H29.707V42.11H26.3905V19.906C25.4131 21.9163 23.8998 23.5192 21.8513 24.7145C19.8027 25.8962 17.1785 26.4869 13.9786 26.487H4.98074V41.7272H0V0H97.3864ZM5.47303 4.2426V21.8376H14.3604C16.5823 21.8376 18.3665 21.4488 19.7131 20.6714C21.0597 19.8939 22.0362 18.8437 22.6422 17.5206C23.2616 16.184 23.5711 14.6766 23.5711 12.999C23.5711 11.3215 23.2615 9.82123 22.6422 8.49828C22.0362 7.17525 21.0529 6.13841 19.6928 5.38824C18.3328 4.62449 16.5285 4.24262 14.2798 4.2426H5.47303Z" fill="white"/>
<path d="M93.9244 42.0749H90.531V38.6873H93.9244V42.0749Z" fill="white"/>
<path d="M111.528 25.2067H113.262V42.0749H111.528V25.2067ZM101.124 42.0749H99.366V25.2067H101.124V42.0749ZM111.694 34.2914H100.934V32.7251H111.694V34.2914Z" fill="white"/>
<path d="M116.879 32.7492H125.668V34.2673H116.879V32.7492ZM117.069 40.5327H127.07V42.0749H115.312V25.2067H126.713V26.7489H117.069V40.5327Z" fill="white"/>
<path d="M134.271 42.0749V26.267L134.746 26.7489H128.428V25.2067H141.849V26.7489H135.554L136.005 26.267V42.0749H134.271Z" fill="white"/>
</svg>
