<svg width="24" height="24" viewBox="0 0 24 24" fill="none" xmlns="http://www.w3.org/2000/svg">
<path fill-rule="evenodd" clip-rule="evenodd" d="M12.6338 20.4203C12.2753 20.761 11.7247 20.761 11.3662 20.4203C9.64324 18.7827 5.00022 13.9496 5 9.42905C5 5.87864 8.13401 3.00033 12 3.00034C15.866 3.00034 19 5.87865 19 9.42905C18.9998 13.9496 14.3568 18.7827 12.6338 20.4203ZM15.5352 9.97202C15.8081 9.93077 15.9962 9.67566 15.9551 9.40268C15.8268 8.55359 15.4285 7.76775 14.8193 7.16244C14.2102 6.55729 13.4221 6.16424 12.5723 6.04135C12.2991 6.00197 12.0454 6.19195 12.0059 6.46518C11.9667 6.73826 12.1566 6.99209 12.4297 7.03159C13.067 7.12383 13.6575 7.41856 14.1143 7.87241C14.5711 8.32638 14.8706 8.91527 14.9668 9.55209C15.0081 9.82491 15.2623 10.0131 15.5352 9.97202Z" fill="white"/>
</svg>
