<svg width="108" height="24" viewBox="0 0 108 24" fill="none" xmlns="http://www.w3.org/2000/svg">
<path d="M10.3073 7.22035C10.9494 5.61967 11.2704 4.81932 11.792 4.7084C11.9291 4.67923 12.0709 4.67923 12.208 4.7084C12.7296 4.81932 13.0506 5.61967 13.6927 7.22035C14.0579 8.13063 14.2404 8.58577 14.582 8.89534C14.6779 8.98217 14.7819 9.0595 14.8926 9.12625C15.2875 9.36423 15.7803 9.40837 16.7661 9.49665C18.4349 9.6461 19.2693 9.72083 19.5241 10.1966C19.5768 10.2951 19.6127 10.4018 19.6302 10.5122C19.7147 11.0452 19.1013 11.6033 17.8745 12.7194L17.5338 13.0293C16.9603 13.5511 16.6735 13.812 16.5076 14.1376C16.4081 14.333 16.3414 14.5433 16.3102 14.7603C16.2581 15.122 16.342 15.5004 16.51 16.2574L16.57 16.5279C16.8712 17.8854 17.0218 18.5642 16.8338 18.8978C16.6649 19.1975 16.3539 19.3894 16.0103 19.4058C15.6278 19.4241 15.0888 18.9849 14.0108 18.1065C13.3006 17.5278 12.9455 17.2384 12.5513 17.1254C12.191 17.0221 11.809 17.0221 11.4488 17.1254C11.0545 17.2384 10.6994 17.5278 9.98923 18.1065C8.91125 18.9849 8.37227 19.4241 7.98975 19.4058C7.64615 19.3894 7.3351 19.1975 7.16623 18.8978C6.97824 18.5642 7.12884 17.8854 7.43004 16.5279L7.49004 16.2574C7.658 15.5004 7.74197 15.122 7.68986 14.7603C7.6586 14.5433 7.59188 14.333 7.49238 14.1376C7.32651 13.812 7.03974 13.5511 6.46619 13.0293L6.12552 12.7194C4.89873 11.6033 4.28534 11.0452 4.36981 10.5122C4.3873 10.4018 4.42318 10.2951 4.47595 10.1966C4.73075 9.72083 5.56514 9.6461 7.2339 9.49665C8.21968 9.40837 8.71257 9.36423 9.10741 9.12625C9.21816 9.0595 9.32217 8.98217 9.41799 8.89534C9.7596 8.58577 9.94217 8.13063 10.3073 7.22035Z" fill="#222222" stroke="#222222" stroke-width="2"/>
<path d="M31.3073 7.22035C31.9494 5.61967 32.2704 4.81932 32.792 4.7084C32.9291 4.67923 33.0709 4.67923 33.208 4.7084C33.7296 4.81932 34.0506 5.61967 34.6927 7.22035C35.0579 8.13063 35.2404 8.58577 35.582 8.89534C35.6779 8.98217 35.7819 9.0595 35.8926 9.12625C36.2875 9.36423 36.7803 9.40837 37.7661 9.49665C39.4349 9.6461 40.2693 9.72083 40.5241 10.1966C40.5768 10.2951 40.6127 10.4018 40.6302 10.5122C40.7147 11.0452 40.1013 11.6033 38.8745 12.7194L38.5338 13.0293C37.9603 13.5511 37.6735 13.812 37.5076 14.1376C37.4081 14.333 37.3414 14.5433 37.3102 14.7603C37.2581 15.122 37.342 15.5004 37.51 16.2574L37.57 16.5279C37.8712 17.8854 38.0218 18.5642 37.8338 18.8978C37.6649 19.1975 37.3539 19.3894 37.0103 19.4058C36.6278 19.4241 36.0888 18.9849 35.0108 18.1065C34.3006 17.5278 33.9455 17.2384 33.5513 17.1254C33.191 17.0221 32.809 17.0221 32.4488 17.1254C32.0545 17.2384 31.6994 17.5278 30.9892 18.1065C29.9113 18.9849 29.3723 19.4241 28.9897 19.4058C28.6461 19.3894 28.3351 19.1975 28.1662 18.8978C27.9782 18.5642 28.1288 17.8854 28.43 16.5279L28.49 16.2574C28.658 15.5004 28.742 15.122 28.6899 14.7603C28.6586 14.5433 28.5919 14.333 28.4924 14.1376C28.3265 13.812 28.0397 13.5511 27.4662 13.0293L27.1255 12.7194C25.8987 11.6033 25.2853 11.0452 25.3698 10.5122C25.3873 10.4018 25.4232 10.2951 25.476 10.1966C25.7308 9.72083 26.5651 9.6461 28.2339 9.49665C29.2197 9.40837 29.7126 9.36423 30.1074 9.12625C30.2182 9.0595 30.3222 8.98217 30.418 8.89534C30.7596 8.58577 30.9422 8.13063 31.3073 7.22035Z" fill="#222222" stroke="#222222" stroke-width="2"/>
<path d="M52.3073 7.22035C52.9494 5.61967 53.2704 4.81932 53.792 4.7084C53.9291 4.67923 54.0709 4.67923 54.208 4.7084C54.7296 4.81932 55.0506 5.61967 55.6927 7.22035C56.0579 8.13063 56.2404 8.58577 56.582 8.89534C56.6779 8.98217 56.7819 9.0595 56.8926 9.12625C57.2875 9.36423 57.7803 9.40837 58.7661 9.49665C60.4349 9.6461 61.2693 9.72083 61.5241 10.1966C61.5768 10.2951 61.6127 10.4018 61.6302 10.5122C61.7147 11.0452 61.1013 11.6033 59.8745 12.7194L59.5338 13.0293C58.9603 13.5511 58.6735 13.812 58.5076 14.1376C58.4081 14.333 58.3414 14.5433 58.3102 14.7603C58.2581 15.122 58.342 15.5004 58.51 16.2574L58.57 16.5279C58.8712 17.8854 59.0218 18.5642 58.8338 18.8978C58.6649 19.1975 58.3539 19.3894 58.0103 19.4058C57.6278 19.4241 57.0888 18.9849 56.0108 18.1065C55.3006 17.5278 54.9455 17.2384 54.5513 17.1254C54.191 17.0221 53.809 17.0221 53.4488 17.1254C53.0545 17.2384 52.6994 17.5278 51.9892 18.1065C50.9113 18.9849 50.3723 19.4241 49.9897 19.4058C49.6461 19.3894 49.3351 19.1975 49.1662 18.8978C48.9782 18.5642 49.1288 17.8854 49.43 16.5279L49.49 16.2574C49.658 15.5004 49.742 15.122 49.6899 14.7603C49.6586 14.5433 49.5919 14.333 49.4924 14.1376C49.3265 13.812 49.0397 13.5511 48.4662 13.0293L48.1255 12.7194C46.8987 11.6033 46.2853 11.0452 46.3698 10.5122C46.3873 10.4018 46.4232 10.2951 46.476 10.1966C46.7308 9.72083 47.5651 9.6461 49.2339 9.49665C50.2197 9.40837 50.7126 9.36423 51.1074 9.12625C51.2182 9.0595 51.3222 8.98217 51.418 8.89534C51.7596 8.58577 51.9422 8.13063 52.3073 7.22035Z" fill="#222222" stroke="#222222" stroke-width="2"/>
<path d="M73.3073 7.22035C73.9494 5.61967 74.2704 4.81932 74.792 4.7084C74.9291 4.67923 75.0709 4.67923 75.208 4.7084C75.7296 4.81932 76.0506 5.61967 76.6927 7.22035C77.0579 8.13063 77.2404 8.58577 77.582 8.89534C77.6779 8.98217 77.7819 9.0595 77.8926 9.12625C78.2875 9.36423 78.7803 9.40837 79.7661 9.49665C81.4349 9.6461 82.2693 9.72083 82.5241 10.1966C82.5768 10.2951 82.6127 10.4018 82.6302 10.5122C82.7147 11.0452 82.1013 11.6033 80.8745 12.7194L80.5338 13.0293C79.9603 13.5511 79.6735 13.812 79.5076 14.1376C79.4081 14.333 79.3414 14.5433 79.3102 14.7603C79.2581 15.122 79.342 15.5004 79.51 16.2574L79.57 16.5279C79.8712 17.8854 80.0218 18.5642 79.8338 18.8978C79.6649 19.1975 79.3539 19.3894 79.0103 19.4058C78.6278 19.4241 78.0888 18.9849 77.0108 18.1065C76.3006 17.5278 75.9455 17.2384 75.5513 17.1254C75.191 17.0221 74.809 17.0221 74.4488 17.1254C74.0545 17.2384 73.6994 17.5278 72.9892 18.1065C71.9113 18.9849 71.3723 19.4241 70.9897 19.4058C70.6461 19.3894 70.3351 19.1975 70.1662 18.8978C69.9782 18.5642 70.1288 17.8854 70.43 16.5279L70.49 16.2574C70.658 15.5004 70.742 15.122 70.6899 14.7603C70.6586 14.5433 70.5919 14.333 70.4924 14.1376C70.3265 13.812 70.0397 13.5511 69.4662 13.0293L69.1255 12.7194C67.8987 11.6033 67.2853 11.0452 67.3698 10.5122C67.3873 10.4018 67.4232 10.2951 67.476 10.1966C67.7308 9.72083 68.5651 9.6461 70.2339 9.49665C71.2197 9.40837 71.7126 9.36423 72.1074 9.12625C72.2182 9.0595 72.3222 8.98217 72.418 8.89534C72.7596 8.58577 72.9422 8.13063 73.3073 7.22035Z" fill="#222222" stroke="#222222" stroke-width="2"/>
<path d="M94.3073 7.22035C94.9494 5.61967 95.2704 4.81932 95.792 4.7084C95.9291 4.67923 96.0709 4.67923 96.208 4.7084C96.7296 4.81932 97.0506 5.61967 97.6927 7.22035C98.0579 8.13063 98.2404 8.58577 98.582 8.89534C98.6779 8.98217 98.7819 9.0595 98.8926 9.12625C99.2875 9.36423 99.7803 9.40837 100.766 9.49665C102.435 9.6461 103.269 9.72083 103.524 10.1966C103.577 10.2951 103.613 10.4018 103.63 10.5122C103.715 11.0452 103.101 11.6033 101.875 12.7194L101.534 13.0293C100.96 13.5511 100.674 13.812 100.508 14.1376C100.408 14.333 100.341 14.5433 100.31 14.7603C100.258 15.122 100.342 15.5004 100.51 16.2574L100.57 16.5279C100.871 17.8854 101.022 18.5642 100.834 18.8978C100.665 19.1975 100.354 19.3894 100.01 19.4058C99.6278 19.4241 99.0888 18.9849 98.0108 18.1065C97.3006 17.5278 96.9455 17.2384 96.5513 17.1254C96.191 17.0221 95.809 17.0221 95.4488 17.1254C95.0545 17.2384 94.6994 17.5278 93.9892 18.1065C92.9113 18.9849 92.3723 19.4241 91.9897 19.4058C91.6461 19.3894 91.3351 19.1975 91.1662 18.8978C90.9782 18.5642 91.1288 17.8854 91.43 16.5279L91.49 16.2574C91.658 15.5004 91.742 15.122 91.6899 14.7603C91.6586 14.5433 91.5919 14.333 91.4924 14.1376C91.3265 13.812 91.0397 13.5511 90.4662 13.0293L90.1255 12.7194C88.8987 11.6033 88.2853 11.0452 88.3698 10.5122C88.3873 10.4018 88.4232 10.2951 88.476 10.1966C88.7308 9.72083 89.5651 9.6461 91.2339 9.49665C92.2197 9.40837 92.7126 9.36423 93.1074 9.12625C93.2182 9.0595 93.3222 8.98217 93.418 8.89534C93.7596 8.58577 93.9422 8.13063 94.3073 7.22035Z" fill="#222222" stroke="#222222" stroke-width="2"/>
</svg>
