<svg width="24" height="24" viewBox="0 0 24 24" fill="none" xmlns="http://www.w3.org/2000/svg">
<path d="M8.00009 13L12.2278 16.3821C12.6557 16.7245 13.2794 16.6586 13.6264 16.2345L22.0001 6" stroke="white" stroke-width="2" stroke-linecap="round"/>
<path fill-rule="evenodd" clip-rule="evenodd" d="M11.1897 12.2363L15.7744 6.63283C16.1237 6.2054 16.0601 5.5752 15.6328 5.22561C15.2054 4.87632 14.5752 4.93992 14.2256 5.36721L9.65302 10.956L11.1897 12.2363ZM8.02284 16.107L6.48625 14.8266L5.833 15.625L2.5996 13.2002C2.15778 12.869 1.53152 12.9586 1.20019 13.4004C0.868952 13.8422 0.958604 14.4685 1.40038 14.7998L4.6328 17.2246C5.4901 17.8676 6.70215 17.7209 7.38085 16.8916L8.02284 16.107Z" fill="white"/>
</svg>
