<svg width="48" height="50" viewBox="0 0 48 50" fill="none" xmlns="http://www.w3.org/2000/svg">
<g filter="url(#filter0_f_202_290)">
<circle cx="24" cy="26" r="20" fill="black" fill-opacity="0.28"/>
</g>
<circle cx="24" cy="23" r="21" fill="white"/>
<path d="M24.0342 8H23.9658C15.7004 8 9 14.7004 9 22.9658V23.0342C9 31.2996 15.7004 38 23.9658 38H24.0342C32.2996 38 39 31.2996 39 23.0342V22.9658C39 14.7004 32.2996 8 24.0342 8Z" fill="black"/>
<path d="M14.6819 22.4882C14.7239 22.4672 14.766 22.4472 14.807 22.4283C15.5196 22.0982 16.2417 21.7892 16.9627 21.4802C17.0016 21.4802 17.0667 21.435 17.1035 21.4203C17.1592 21.3961 17.2149 21.373 17.2706 21.3489C17.3778 21.3026 17.4851 21.2574 17.5912 21.2112C17.8056 21.1197 18.019 21.0283 18.2334 20.9368L19.5167 20.3871C20.3723 20.0214 21.2289 19.6546 22.0844 19.2888C22.94 18.923 23.7966 18.5562 24.6521 18.1905C25.5077 17.8247 26.3643 17.4579 27.2198 17.0921C28.0754 16.7264 28.932 16.3595 29.7876 15.9938C29.9778 15.9118 30.1838 15.7899 30.3877 15.7541C30.559 15.7236 30.7261 15.6648 30.8985 15.6322C31.2254 15.5702 31.5859 15.545 31.8991 15.6806C32.0073 15.7279 32.1072 15.7941 32.1902 15.8771C32.5875 16.2702 32.5318 16.9155 32.4477 17.4684C31.8623 21.3215 31.2769 25.1757 30.6904 29.0288C30.6105 29.5575 30.5012 30.1377 30.0839 30.4719C29.7308 30.7547 29.2284 30.7862 28.7922 30.6664C28.356 30.5455 27.9713 30.2922 27.594 30.0431C26.029 29.0068 24.4629 27.9704 22.8979 26.9341C22.5259 26.6882 22.1118 26.3665 22.116 25.9198C22.1181 25.6508 22.2789 25.4111 22.4428 25.1978C23.8029 23.4236 25.7652 22.2044 27.2251 20.5122C27.4311 20.2736 27.593 19.8427 27.3102 19.705C27.1421 19.623 26.9487 19.7344 26.7952 19.8406C24.8655 21.1807 22.9368 22.5218 21.0071 23.8619C20.3775 24.2991 19.7175 24.749 18.9586 24.8562C18.2796 24.9529 17.5965 24.7637 16.9396 24.5703C16.3888 24.4084 15.8391 24.2424 15.2915 24.0711C15.0004 23.9807 14.6998 23.8829 14.4748 23.678C14.2499 23.473 14.1207 23.1283 14.2562 22.855C14.3414 22.6837 14.5064 22.5754 14.6798 22.4871L14.6819 22.4882Z" fill="#FEFFFC"/>
<defs>
<filter id="filter0_f_202_290" x="0" y="2" width="48" height="48" filterUnits="userSpaceOnUse" color-interpolation-filters="sRGB">
<feFlood flood-opacity="0" result="BackgroundImageFix"/>
<feBlend mode="normal" in="SourceGraphic" in2="BackgroundImageFix" result="shape"/>
<feGaussianBlur stdDeviation="2" result="effect1_foregroundBlur_202_290"/>
</filter>
</defs>
</svg>
